<?xml version="1.0" encoding="utf-8"?>
<!-- Generator: Adobe Illustrator 22.0.0, SVG Export Plug-In . SVG Version: 6.00 Build 0)  -->
<svg version="1.1" xmlns="http://www.w3.org/2000/svg" xmlns:xlink="http://www.w3.org/1999/xlink" x="0px" y="0px"
	 viewBox="0 0 600 600" style="enable-background:new 0 0 600 600;" xml:space="preserve">
<style type="text/css">
	.st0{fill:#E6F8F9;}
	.st1{fill:none;}
	.st2{fill:#E86ED0;}
	.st3{font-family:'LatinWide';}
	.st4{font-size:60px;}
	.st5{fill:#EDB5F5;}
	.st6{font-size:36px;}
	.st7{fill:none;stroke:#FFFFFF;stroke-miterlimit:10;}
	.st8{fill:#B1E8ED;stroke:#FFFFFF;stroke-miterlimit:10;}
</style>
<g id="Layer_1">
</g>
<g id="Layer_2">
	<g>
		<rect x="12" y="8" class="st0" width="577" height="577"/>
	</g>
	<rect x="90" y="334" class="st1" width="439" height="55"/>
	<text transform="matrix(1 0 0 1 112.7715 376.042)" class="st2 st3 st4">NOTES</text>
	<rect x="27" y="415" class="st1" width="544" height="112"/>
	<text transform="matrix(1 0 0 1 87.3682 440.2256)"><tspan x="0" y="0" class="st5 st3 st6">Modern Notes </tspan><tspan x="164.4" y="43.2" class="st5 st3 st6">for </tspan><tspan x="-16.3" y="86.4" class="st5 st3 st6">Modern People</tspan></text>
	<line class="st7" x1="307.5" y1="48.5" x2="309.5" y2="299.5"/>
	<path class="st7" d="M471,93.5"/>
	<path class="st7" d="M328,93.5"/>
	<path class="st7" d="M471,117.5"/>
	<path class="st7" d="M328,117.5"/>
	<g>
		<rect x="215" y="48.5" class="st8" width="185.5" height="251.5"/>
		<line class="st7" x1="233.5" y1="95.5" x2="376.5" y2="95.5"/>
		<line class="st7" x1="233.5" y1="75.5" x2="315.5" y2="75.5"/>
		<line class="st7" x1="233.5" y1="119.5" x2="376.5" y2="119.5"/>
		<line class="st7" x1="234" y1="143.5" x2="377" y2="143.5"/>
		<line class="st7" x1="234" y1="167.5" x2="377" y2="167.5"/>
		<line class="st7" x1="234" y1="191.5" x2="377" y2="191.5"/>
		<line class="st7" x1="234" y1="215.5" x2="377" y2="215.5"/>
		<line class="st7" x1="235" y1="239.5" x2="378" y2="239.5"/>
		<line class="st7" x1="235" y1="263.5" x2="285" y2="263.5"/>
	</g>
	<path class="st7" d="M410.5,73.5"/>
	<path class="st7" d="M328.5,73.5"/>
	<path class="st7" d="M471.5,117.5"/>
	<path class="st7" d="M328.5,117.5"/>
	<path class="st7" d="M472,141.5"/>
	<path class="st7" d="M329,141.5"/>
	<path class="st7" d="M472,165.5"/>
	<path class="st7" d="M329,165.5"/>
	<path class="st7" d="M472,189.5"/>
	<path class="st7" d="M329,189.5"/>
	<path class="st7" d="M472,213.5"/>
	<path class="st7" d="M329,213.5"/>
	<path class="st7" d="M473,237.5"/>
	<path class="st7" d="M330,237.5"/>
	<path class="st7" d="M330,261.5"/>
</g>
</svg>
